<svg width="1000" height="403" viewBox="0 0 1000 403" fill="none" xmlns="http://www.w3.org/2000/svg">
<path d="M1000 0H0V402.473H1000V0Z" fill="#ED1D24"/>
<path d="M846.253 93.792V32.189H674.834L646.643 237.992L618.747 32.19H556.93L563.855 87.105C556.715 73.037 531.406 32.19 475.709 32.19C475.342 32.166 413.808 32.19 413.808 32.19L413.571 332.164L368.514 32.19L287.555 32.143L240.943 342.957L240.967 32.188H163.484L135.551 206.773L108.343 32.19H30.835V370.096H91.871V207.226L119.635 370.092H152.084L179.458 207.226V370.092H297.125L304.265 318.097H351.639L358.755 370.092L474.276 370.163H474.37V370.092H474.442H474.514V260.407L488.676 258.344L517.995 370.163H518.067H577.677H577.747L577.723 370.092H577.829H577.901L539.426 239.035C558.924 224.613 580.939 187.988 575.08 152.951V152.928C575.15 153.402 611.396 370.308 611.396 370.308L682.461 370.092L731.02 63.808V370.093H846.256V309.32H791.556V231.824H846.256V170.126H791.556V93.792H846.253ZM311.455 264.513L328.213 120.052L345.613 264.513H311.455ZM488.874 197.809C484.177 200.087 479.279 201.226 474.511 201.226V92.535C474.594 92.535 474.69 92.513 474.808 92.513C479.588 92.489 515.227 93.959 515.227 146.287C515.227 173.66 503.106 190.907 488.874 197.809ZM969.234 309.273V370.045H856.82V32.143H917.346V309.273H969.234Z" fill="white"/>
</svg>
